<?xml version="1.0" encoding="UTF-8" standalone="no"?>
<!DOCTYPE svg PUBLIC "-//W3C//DTD SVG 1.1//EN" "http://www.w3.org/Graphics/SVG/1.1/DTD/svg11.dtd">
<svg width="100%" height="100%" viewBox="0 0 5066 967" version="1.1" xmlns="http://www.w3.org/2000/svg" xmlns:xlink="http://www.w3.org/1999/xlink" xml:space="preserve" xmlns:serif="http://www.serif.com/" style="fill-rule:evenodd;clip-rule:evenodd;stroke-linejoin:round;stroke-miterlimit:2;">
    <g transform="matrix(1,0,0,1,-3977.68,-510.099)">
        <g id="Artboard2" transform="matrix(0.672107,0,0,0.687847,2471.92,619.289)">
            <rect x="2240.36" y="-158.742" width="7537.43" height="1405.44" style="fill:none;"/>
            <clipPath id="_clip1">
                <rect x="2240.36" y="-158.742" width="7537.43" height="1405.44"/>
            </clipPath>
            <g clip-path="url(#_clip1)">
                <g transform="matrix(1.14305,0,0,1.76534,-829.751,-416.331)">
                    <g transform="matrix(1.74636,0,0,1.04823,-2486.26,-333.275)">
                        <path d="M3024.17,603.127C3035.27,546.62 3090.77,470.257 3181.59,470.257L3358.43,470.257L3359.44,1071.33C3359.44,1148.02 3280.47,1204.53 3197.73,1204.53C2885.93,1204.53 2901.07,854.383 3317.81,854.383L3317.81,841.265C2885.93,841.265 2847.59,1216.64 3198.74,1216.64C3339,1216.64 3438.9,1150.04 3438.9,1028.95L3439.91,470.257L3439.91,457.14L3035.27,457.14L3013.07,603.127L3024.17,603.127Z" style="fill:rgb(19,83,56);fill-rule:nonzero;"/>
                    </g>
                    <g transform="matrix(1.19285,0,0,0.75469,-698.427,-144.46)">
                        <path d="M3835.46,695.961C3697.22,695.961 3550.9,780.722 3550.9,955.289C3550.9,1138.94 3691.16,1217.64 3825.37,1217.64C3948.47,1217.64 4066.53,1151.05 4066.53,1037.02C4066.53,989.597 4029.2,936.117 3937.37,909.882L4044.33,909.882L4044.33,901.809C4044.33,781.731 3962.6,695.961 3835.46,695.961ZM3656.85,909.882L3900.04,909.882C4008.01,932.081 4051.4,992.625 4051.4,1038.03C4051.4,1106.65 3968.65,1151.05 3877.84,1151.05C3763.81,1151.05 3636.67,1082.43 3636.67,904.836C3636.67,773.658 3715.38,714.124 3792.07,714.124C3864.72,714.124 3935.35,766.595 3935.35,860.438C3935.35,872.546 3934.35,884.655 3931.32,897.773L3655.84,897.773L3656.85,909.882Z" style="fill:rgb(19,83,56);fill-rule:nonzero;"/>
                    </g>
                    <g transform="matrix(1.19285,0,0,0.75469,-793.645,-135.322)">
                        <path d="M4275.41,889.7C4300.64,836.22 4361.18,785.767 4416.68,785.767C4447.96,785.767 4477.22,801.912 4497.4,842.275L4540.79,766.595C4540.79,731.278 4520.61,698.988 4464.1,698.988C4405.58,698.988 4313.75,783.749 4275.41,870.528L4275.41,889.7ZM4265.32,1206.55L4265.32,702.015L4129.09,702.015L4129.09,711.097C4163.4,711.097 4166.43,730.269 4166.43,758.522L4166.43,1206.55L4265.32,1206.55Z" style="fill:rgb(19,83,56);fill-rule:nonzero;"/>
                    </g>
                    <g transform="matrix(1.19285,0,0,0.75469,-865.015,-143.698)">
                        <path d="M4857.64,695.961C4719.4,695.961 4573.08,780.722 4573.08,955.289C4573.08,1138.94 4713.34,1217.64 4847.55,1217.64C4970.65,1217.64 5088.71,1151.05 5088.71,1037.02C5088.71,989.597 5051.38,936.117 4959.55,909.882L5066.51,909.882L5066.51,901.809C5066.51,781.731 4984.78,695.961 4857.64,695.961ZM4679.03,909.882L4922.22,909.882C5030.19,932.081 5073.58,992.625 5073.58,1038.03C5073.58,1106.65 4990.83,1151.05 4900.02,1151.05C4785.99,1151.05 4658.85,1082.43 4658.85,904.836C4658.85,773.658 4737.56,714.124 4814.25,714.124C4886.9,714.124 4957.53,766.595 4957.53,860.438C4957.53,872.546 4956.53,884.655 4953.5,897.773L4678.02,897.773L4679.03,909.882Z" style="fill:rgb(19,83,56);fill-rule:nonzero;"/>
                    </g>
                    <g transform="matrix(1.19285,0,0,0.75469,-924.65,-135.322)">
                        <path d="M5304.65,812.003L5304.65,829.157C5341.99,774.667 5396.48,731.278 5449.96,731.278C5509.49,731.278 5556.92,784.758 5556.92,869.519C5556.92,1375.06 5556.92,702.015 5556.92,1206.55L5654.8,1206.55L5654.8,869.519C5654.8,750.45 5574.07,684.861 5489.31,684.861C5411.61,684.861 5347.03,752.468 5304.65,812.003ZM5659.84,812.003L5662.87,825.12C5700.2,769.622 5752.67,731.278 5805.15,731.278C5865.69,731.278 5913.11,784.758 5913.11,869.519C5913.11,1375.06 5913.11,702.015 5913.11,1206.55L6010.99,1206.55L6009.98,869.519C6009.98,750.45 5929.26,684.861 5845.51,684.861C5767.81,684.861 5702.22,752.468 5659.84,812.003ZM5287.5,1206.55L5287.5,702.015L5152.28,702.015L5152.28,711.097C5186.59,711.097 5189.62,730.269 5189.62,758.522L5189.62,837.229C5189.62,1105.64 5189.62,759.531 5189.62,1206.55L5287.5,1206.55Z" style="fill:rgb(19,83,56);fill-rule:nonzero;"/>
                    </g>
                    <g transform="matrix(1.19285,0,0,0.75469,-1022.8,-135.322)">
                        <path d="M6152.26,514.33C6135.11,531.484 6144.19,571.846 6174.46,610.19L6195.65,636.426L6216.84,610.19C6248.12,571.846 6257.2,531.484 6240.05,514.33C6228.95,503.23 6212.81,498.185 6196.66,498.185C6179.51,498.185 6163.36,503.23 6152.26,514.33ZM6243.08,1206.55L6243.08,702.015L6106.86,702.015L6106.86,711.097C6141.16,711.097 6144.19,730.269 6144.19,758.522L6144.19,1206.55L6243.08,1206.55Z" style="fill:rgb(19,83,56);fill-rule:nonzero;"/>
                    </g>
                    <g transform="matrix(1.19285,0,0,0.75469,-1152.87,-142.937)">
                        <path d="M6889.89,702.015L6711.28,702.015C6488.28,702.015 6371.23,869.519 6371.23,1013.82C6371.23,1121.79 6436.82,1216.64 6575.06,1216.64C6666.88,1216.64 6737.52,1166.18 6770.82,1064.27L6770.82,1035.01C6751.65,1109.68 6691.1,1160.13 6613.4,1160.13C6519.56,1160.13 6474.15,1084.45 6474.15,995.652C6474.15,869.519 6565.98,717.151 6737.52,716.142L6792.01,716.142L6792.01,1206.55L6889.89,1206.55L6889.89,702.015Z" style="fill:rgb(19,83,56);fill-rule:nonzero;"/>
                    </g>
                    <g transform="matrix(1.19285,0,0,0.75469,-1263.06,-135.322)">
                        <path d="M7033.17,1206.55L7132.06,1206.55L7132.06,372.651L6995.84,372.651L6995.84,381.733C7030.15,381.733 7033.17,399.896 7033.17,429.158L7033.17,1206.55ZM7149.22,812.003L7149.22,829.157C7186.55,774.667 7244.07,731.278 7309.66,731.278C7370.2,731.278 7417.62,784.758 7417.62,869.519C7417.62,1375.06 7417.62,702.015 7417.62,1206.55L7515.5,1206.55L7514.49,869.519C7514.49,750.45 7433.77,684.861 7349.01,684.861C7259.2,684.861 7191.6,752.468 7149.22,812.003Z" style="fill:rgb(19,83,56);fill-rule:nonzero;"/>
                    </g>
                    <g transform="matrix(0.812799,0,0,0.514242,1344.9,148.839)">
                        <path d="M8436.78,696.97C8436.78,566.801 8309.64,492.13 8196.62,492.13C8090.67,492.13 7987.74,546.62 7987.74,653.58L8071.5,725.223C8053.33,554.692 8129.01,504.239 8201.67,504.239C8274.32,504.239 8341.93,566.801 8341.93,648.535C8341.93,857.41 7977.65,859.429 7977.65,1206.55L8407.51,1206.55L8437.79,1042.07L8426.69,1042.07C8381.28,1144.99 8276.34,1141.97 8196.62,1141.97L8002.88,1141.97C8002.88,939.144 8436.78,932.081 8436.78,696.97Z" style="fill:rgb(19,83,56);fill-rule:nonzero;"/>
                        <path d="M8537.68,1095.55C8537.68,1150.04 8589.15,1216.64 8724.36,1216.64C8905.99,1216.64 9018,1094.54 9018,839.247C9018,603.127 8897.92,494.148 8749.59,494.148C8627.49,494.148 8499.34,566.801 8499.34,735.314C8499.34,853.374 8573,951.253 8720.32,951.253C8814.17,951.253 8876.73,875.574 8902.96,795.858L8900.95,761.55C8884.8,854.383 8819.21,901.809 8755.64,901.809C8518.51,901.809 8561.9,518.366 8749.59,518.366C8898.93,518.366 8914.06,702.015 8914.06,836.22C8914.06,1011.8 8878.75,1204.53 8722.34,1204.53C8647.67,1204.53 8607.31,1109.68 8615.38,1027.94L8537.68,1095.55Z" style="fill:rgb(19,83,56);fill-rule:nonzero;"/>
                        <path d="M9125.97,798.885C9125.97,832.184 9151.19,855.392 9186.51,855.392C9223.84,855.392 9248.06,832.184 9248.06,798.885C9248.06,765.586 9223.84,743.387 9186.51,743.387C9151.19,743.387 9125.97,765.586 9125.97,798.885ZM9125.97,1132.88C9125.97,1166.18 9151.19,1188.38 9186.51,1188.38C9223.84,1188.38 9248.06,1166.18 9248.06,1132.88C9248.06,1098.58 9223.84,1076.38 9186.51,1076.38C9151.19,1076.38 9125.97,1098.58 9125.97,1132.88Z" style="fill:rgb(19,83,56);fill-rule:nonzero;"/>
                        <path d="M9318.7,656.607C9390.34,580.928 9445.84,553.683 9589.12,555.701L9733.42,557.719L9367.13,1206.55L9507.39,1206.55L9762.68,512.311L9762.68,500.203L9322.73,500.203L9306.59,652.571L9318.7,656.607Z" style="fill:rgb(19,83,56);fill-rule:nonzero;"/>
                    </g>
                </g>
            </g>
        </g>
    </g>
</svg>
